<?xml version="1.0" encoding="UTF-8" standalone="no"?>
<!DOCTYPE svg PUBLIC "-//W3C//DTD SVG 1.1//EN" "http://www.w3.org/Graphics/SVG/1.1/DTD/svg11.dtd">
<svg width="100%" height="100%" viewBox="0 0 2748 1989" version="1.1" xmlns="http://www.w3.org/2000/svg" xmlns:xlink="http://www.w3.org/1999/xlink" xml:space="preserve" style="fill-rule:evenodd;clip-rule:evenodd;stroke-linejoin:round;stroke-miterlimit:1.41421;">
    <g transform="matrix(4.16667,0,0,4.16667,-5152.95,-1055.41)">
        <g transform="matrix(1.50987,0,0,1.12856,44.7191,-33.9661)">
            <path d="M770.397,386.77C770.196,387.431 769.942,388.084 769.634,388.725C769.463,389.08 769.276,389.428 769.075,389.767L689.328,524.107L789.464,428.911L789.464,457.599L689.328,524.107L789.464,491.886L789.464,510.253L689.328,524.107L789.464,537.962L789.464,556.329L689.328,524.107L789.464,590.616L789.464,619.303L689.328,524.107L769.075,658.447C769.276,658.786 769.463,659.134 769.634,659.49C769.942,660.131 770.196,660.784 770.397,661.445L741.318,661.445L689.328,524.107L701.295,661.445L677.361,661.445L689.328,524.107L637.338,661.445L608.258,661.445C608.459,660.784 608.713,660.131 609.022,659.49C609.193,659.134 609.38,658.786 609.581,658.447L689.328,524.107L589.192,619.303L589.192,590.616L689.328,524.107L589.192,556.329L589.192,537.962L689.328,524.107L589.192,510.253L589.192,491.886L689.328,524.107L589.192,457.599L589.192,428.911L689.328,524.107L609.581,389.767C609.38,389.428 609.193,389.08 609.022,388.725C608.713,388.084 608.459,387.431 608.258,386.77L637.338,386.77L689.328,524.107L677.361,386.77L701.295,386.77L689.328,524.107L741.318,386.77L770.397,386.77Z" style="fill:rgb(244,58,0);"/>
        </g>
        <g transform="matrix(3.29218,0,0,1.73716,-703.016,-418.584)">
            <path d="M770.397,386.77C770.196,387.431 769.942,388.084 769.634,388.725C769.463,389.08 769.276,389.428 769.075,389.767L689.328,524.107L789.464,428.911L789.464,457.599L689.328,524.107L789.464,491.886L789.464,510.253L689.328,524.107L789.464,537.962L789.464,556.329L689.328,524.107L789.464,590.616L789.464,619.303L689.328,524.107L769.075,658.447C769.276,658.786 769.463,659.134 769.634,659.49C769.942,660.131 770.196,660.784 770.397,661.445L741.318,661.445L689.328,524.107L701.295,661.445L677.361,661.445L689.328,524.107L637.338,661.445L608.258,661.445C608.459,660.784 608.713,660.131 609.022,659.49C609.193,659.134 609.38,658.786 609.581,658.447L689.328,524.107L589.192,619.303L589.192,590.616L689.328,524.107L589.192,556.329L589.192,537.962L689.328,524.107L589.192,510.253L589.192,491.886L689.328,524.107L589.192,457.599L589.192,428.911L689.328,524.107L609.581,389.767C609.38,389.428 609.193,389.08 609.022,388.725C608.713,388.084 608.459,387.431 608.258,386.77L637.338,386.77L689.328,524.107L677.361,386.77L701.295,386.77L689.328,524.107L741.318,386.77L770.397,386.77Z" style="fill:rgb(244,58,0);"/>
        </g>
    </g>
</svg>
