<?xml version="1.0" encoding="UTF-8" standalone="no"?>
<!DOCTYPE svg PUBLIC "-//W3C//DTD SVG 1.1//EN" "http://www.w3.org/Graphics/SVG/1.1/DTD/svg11.dtd">
<svg width="100%" height="100%" viewBox="0 0 4034 1852" version="1.1" xmlns="http://www.w3.org/2000/svg" xmlns:xlink="http://www.w3.org/1999/xlink" xml:space="preserve" style="fill-rule:evenodd;clip-rule:evenodd;stroke-linejoin:round;stroke-miterlimit:1.41421;">
    <g transform="matrix(4.16667,0,0,4.16667,-2483.05,-5789.63)">
        <g transform="matrix(9.70074,0,0,9.70074,594.963,1126.62)">
            <circle cx="66.2" cy="28.4" r="1.3" style="fill:rgb(45,45,45);"/>
            <circle cx="66.2" cy="32" r="1.3" style="fill:rgb(45,45,45);"/>
            <circle cx="73.4" cy="32" r="1.3" style="fill:rgb(45,45,45);"/>
            <circle cx="62.6" cy="35.6" r="1.3" style="fill:rgb(45,45,45);"/>
            <circle cx="66.2" cy="35.6" r="1.3" style="fill:rgb(45,45,45);"/>
            <circle cx="69.8" cy="35.6" r="1.3" style="fill:rgb(45,45,45);"/>
            <circle cx="73.4" cy="35.6" r="1.3" style="fill:rgb(45,45,45);"/>
            <circle cx="77" cy="35.6" r="1.3" style="fill:rgb(45,45,45);"/>
            <circle cx="59" cy="39.2" r="1.3" style="fill:rgb(45,45,45);"/>
            <circle cx="62.6" cy="39.2" r="1.3" style="fill:rgb(45,45,45);"/>
            <circle cx="66.2" cy="39.2" r="1.3" style="fill:rgb(45,45,45);"/>
            <circle cx="69.8" cy="39.2" r="1.3" style="fill:rgb(45,45,45);"/>
            <circle cx="73.4" cy="39.2" r="1.3" style="fill:rgb(45,45,45);"/>
            <circle cx="77" cy="39.2" r="1.3" style="fill:rgb(45,45,45);"/>
            <circle cx="80.6" cy="39.2" r="1.3" style="fill:rgb(45,45,45);"/>
            <circle cx="51.8" cy="42.8" r="1.3" style="fill:rgb(45,45,45);"/>
            <circle cx="59" cy="42.8" r="1.3" style="fill:rgb(45,45,45);"/>
            <circle cx="62.6" cy="42.8" r="1.3" style="fill:rgb(45,45,45);"/>
            <circle cx="66.2" cy="42.8" r="1.3" style="fill:rgb(45,45,45);"/>
            <circle cx="69.8" cy="42.8" r="1.3" style="fill:rgb(45,45,45);"/>
            <circle cx="73.4" cy="42.8" r="1.3" style="fill:rgb(45,45,45);"/>
            <circle cx="77" cy="42.8" r="1.3" style="fill:rgb(45,45,45);"/>
            <circle cx="48.2" cy="46.4" r="1.3" style="fill:rgb(45,45,45);"/>
            <circle cx="51.8" cy="46.4" r="1.3" style="fill:rgb(45,45,45);"/>
            <circle cx="55.4" cy="46.4" r="1.3" style="fill:rgb(45,45,45);"/>
            <circle cx="59" cy="46.4" r="1.3" style="fill:rgb(45,45,45);"/>
            <circle cx="62.6" cy="46.4" r="1.3" style="fill:rgb(45,45,45);"/>
            <circle cx="66.2" cy="46.4" r="1.3" style="fill:rgb(45,45,45);"/>
            <circle cx="69.8" cy="46.4" r="1.3" style="fill:rgb(45,45,45);"/>
            <circle cx="73.4" cy="46.4" r="1.3" style="fill:rgb(45,45,45);"/>
            <circle cx="77" cy="46.4" r="1.3" style="fill:rgb(45,45,45);"/>
            <circle cx="80.6" cy="46.4" r="1.3" style="fill:rgb(45,45,45);"/>
            <circle cx="48.2" cy="50" r="1.3" style="fill:rgb(45,45,45);"/>
            <circle cx="51.8" cy="50" r="1.3" style="fill:rgb(45,45,45);"/>
            <circle cx="55.4" cy="50" r="1.3" style="fill:rgb(45,45,45);"/>
            <circle cx="59" cy="50" r="1.3" style="fill:rgb(45,45,45);"/>
            <circle cx="62.6" cy="50" r="1.3" style="fill:rgb(45,45,45);"/>
            <circle cx="66.2" cy="50" r="1.3" style="fill:rgb(45,45,45);"/>
            <circle cx="69.8" cy="50" r="1.3" style="fill:rgb(45,45,45);"/>
            <circle cx="73.4" cy="50" r="1.3" style="fill:rgb(45,45,45);"/>
            <circle cx="77" cy="50" r="1.3" style="fill:rgb(45,45,45);"/>
            <circle cx="80.6" cy="50" r="1.3" style="fill:rgb(45,45,45);"/>
            <circle cx="84.2" cy="50" r="1.3" style="fill:rgb(45,45,45);"/>
            <circle cx="44.6" cy="53.6" r="1.3" style="fill:rgb(45,45,45);"/>
            <circle cx="48.2" cy="53.6" r="1.3" style="fill:rgb(45,45,45);"/>
            <circle cx="51.8" cy="53.6" r="1.3" style="fill:rgb(45,45,45);"/>
            <circle cx="55.4" cy="53.6" r="1.3" style="fill:rgb(45,45,45);"/>
            <circle cx="59" cy="53.6" r="1.3" style="fill:rgb(45,45,45);"/>
            <circle cx="62.6" cy="53.6" r="1.3" style="fill:rgb(45,45,45);"/>
            <circle cx="66.2" cy="53.6" r="1.3" style="fill:rgb(45,45,45);"/>
            <circle cx="69.8" cy="53.6" r="1.3" style="fill:rgb(45,45,45);"/>
            <circle cx="73.4" cy="53.6" r="1.3" style="fill:rgb(45,45,45);"/>
            <circle cx="77" cy="53.6" r="1.3" style="fill:rgb(45,45,45);"/>
            <circle cx="80.6" cy="53.6" r="1.3" style="fill:rgb(45,45,45);"/>
            <circle cx="84.2" cy="53.6" r="1.3" style="fill:rgb(45,45,45);"/>
            <circle cx="87.8" cy="53.6" r="1.3" style="fill:rgb(45,45,45);"/>
            <circle cx="98.6" cy="53.6" r="1.3" style="fill:rgb(45,45,45);"/>
            <circle cx="44.6" cy="57.2" r="1.3" style="fill:rgb(45,45,45);"/>
            <circle cx="48.2" cy="57.2" r="1.3" style="fill:rgb(45,45,45);"/>
            <circle cx="51.8" cy="57.2" r="1.3" style="fill:rgb(45,45,45);"/>
            <circle cx="55.4" cy="57.2" r="1.3" style="fill:rgb(45,45,45);"/>
            <circle cx="59" cy="57.2" r="1.3" style="fill:rgb(45,45,45);"/>
            <circle cx="62.6" cy="57.2" r="1.3" style="fill:rgb(45,45,45);"/>
            <circle cx="66.2" cy="57.2" r="1.3" style="fill:rgb(45,45,45);"/>
            <circle cx="69.8" cy="57.2" r="1.3" style="fill:rgb(45,45,45);"/>
            <circle cx="73.4" cy="57.2" r="1.3" style="fill:rgb(45,45,45);"/>
            <circle cx="77" cy="57.2" r="1.3" style="fill:rgb(45,45,45);"/>
            <circle cx="80.6" cy="57.2" r="1.3" style="fill:rgb(45,45,45);"/>
            <circle cx="84.2" cy="57.2" r="1.3" style="fill:rgb(45,45,45);"/>
            <circle cx="87.8" cy="57.2" r="1.3" style="fill:rgb(45,45,45);"/>
            <circle cx="95" cy="57.2" r="1.3" style="fill:rgb(45,45,45);"/>
            <circle cx="98.6" cy="57.2" r="1.3" style="fill:rgb(45,45,45);"/>
            <circle cx="19.4" cy="60.8" r="1.3" style="fill:rgb(45,45,45);"/>
            <circle cx="23" cy="60.8" r="1.3" style="fill:rgb(45,45,45);"/>
            <circle cx="30.2" cy="60.8" r="1.3" style="fill:rgb(45,45,45);"/>
            <circle cx="37.4" cy="60.8" r="1.3" style="fill:rgb(45,45,45);"/>
            <circle cx="41" cy="60.8" r="1.3" style="fill:rgb(45,45,45);"/>
            <circle cx="44.6" cy="60.8" r="1.3" style="fill:rgb(45,45,45);"/>
            <circle cx="48.2" cy="60.8" r="1.3" style="fill:rgb(45,45,45);"/>
            <circle cx="51.8" cy="60.8" r="1.3" style="fill:rgb(45,45,45);"/>
            <circle cx="55.4" cy="60.8" r="1.3" style="fill:rgb(45,45,45);"/>
            <circle cx="59" cy="60.8" r="1.3" style="fill:rgb(45,45,45);"/>
            <circle cx="62.6" cy="60.8" r="1.3" style="fill:rgb(45,45,45);"/>
            <circle cx="66.2" cy="60.8" r="1.3" style="fill:rgb(45,45,45);"/>
            <circle cx="69.8" cy="60.8" r="1.3" style="fill:rgb(45,45,45);"/>
            <circle cx="73.4" cy="60.8" r="1.3" style="fill:rgb(45,45,45);"/>
            <circle cx="77" cy="60.8" r="1.3" style="fill:rgb(45,45,45);"/>
            <circle cx="80.6" cy="60.8" r="1.3" style="fill:rgb(45,45,45);"/>
            <circle cx="84.2" cy="60.8" r="1.3" style="fill:rgb(45,45,45);"/>
            <circle cx="87.8" cy="60.8" r="1.3" style="fill:rgb(45,45,45);"/>
            <circle cx="95" cy="60.8" r="1.3" style="fill:rgb(45,45,45);"/>
            <circle cx="15.8" cy="64.4" r="1.3" style="fill:rgb(45,45,45);"/>
            <circle cx="19.4" cy="64.4" r="1.3" style="fill:rgb(45,45,45);"/>
            <circle cx="23" cy="64.4" r="1.3" style="fill:rgb(45,45,45);"/>
            <circle cx="26.6" cy="64.4" r="1.3" style="fill:rgb(45,45,45);"/>
            <circle cx="30.2" cy="64.4" r="1.3" style="fill:rgb(45,45,45);"/>
            <circle cx="33.8" cy="64.4" r="1.3" style="fill:rgb(45,45,45);"/>
            <circle cx="37.4" cy="64.4" r="1.3" style="fill:rgb(45,45,45);"/>
            <circle cx="41" cy="64.4" r="1.3" style="fill:rgb(45,45,45);"/>
            <circle cx="44.6" cy="64.4" r="1.3" style="fill:rgb(222,48,47);"/>
            <circle cx="48.2" cy="64.4" r="1.3" style="fill:rgb(45,45,45);"/>
            <circle cx="51.8" cy="64.4" r="1.3" style="fill:rgb(45,45,45);"/>
            <circle cx="55.4" cy="64.4" r="1.3" style="fill:rgb(45,45,45);"/>
            <circle cx="59" cy="64.4" r="1.3" style="fill:rgb(45,45,45);"/>
            <circle cx="62.6" cy="64.4" r="1.3" style="fill:rgb(45,45,45);"/>
            <circle cx="66.2" cy="64.4" r="1.3" style="fill:rgb(45,45,45);"/>
            <circle cx="69.8" cy="64.4" r="1.3" style="fill:rgb(45,45,45);"/>
            <circle cx="73.4" cy="64.4" r="1.3" style="fill:rgb(45,45,45);"/>
            <circle cx="77" cy="64.4" r="1.3" style="fill:rgb(45,45,45);"/>
            <circle cx="80.6" cy="64.4" r="1.3" style="fill:rgb(45,45,45);"/>
            <circle cx="84.2" cy="64.4" r="1.3" style="fill:rgb(45,45,45);"/>
            <circle cx="87.8" cy="64.4" r="1.3" style="fill:rgb(45,45,45);"/>
            <circle cx="95" cy="64.4" r="1.3" style="fill:rgb(45,45,45);"/>
            <circle cx="8.6" cy="68" r="1.3" style="fill:rgb(45,45,45);"/>
            <circle cx="12.2" cy="68" r="1.3" style="fill:rgb(45,45,45);"/>
            <circle cx="15.8" cy="68" r="1.3" style="fill:rgb(45,45,45);"/>
            <circle cx="19.4" cy="68" r="1.3" style="fill:rgb(45,45,45);"/>
            <circle cx="23" cy="68" r="1.3" style="fill:rgb(45,45,45);"/>
            <circle cx="26.6" cy="68" r="1.3" style="fill:rgb(45,45,45);"/>
            <circle cx="30.2" cy="68" r="1.3" style="fill:rgb(45,45,45);"/>
            <circle cx="33.8" cy="68" r="1.3" style="fill:rgb(45,45,45);"/>
            <circle cx="37.4" cy="68" r="1.3" style="fill:rgb(45,45,45);"/>
            <circle cx="41" cy="68" r="1.3" style="fill:rgb(45,45,45);"/>
            <circle cx="44.6" cy="68" r="1.3" style="fill:rgb(45,45,45);"/>
            <circle cx="48.2" cy="68" r="1.3" style="fill:rgb(45,45,45);"/>
            <circle cx="51.8" cy="68" r="1.3" style="fill:rgb(45,45,45);"/>
            <circle cx="55.4" cy="68" r="1.3" style="fill:rgb(45,45,45);"/>
            <circle cx="59" cy="68" r="1.3" style="fill:rgb(45,45,45);"/>
            <circle cx="62.6" cy="68" r="1.3" style="fill:rgb(45,45,45);"/>
            <circle cx="66.2" cy="68" r="1.3" style="fill:rgb(45,45,45);"/>
            <circle cx="69.8" cy="68" r="1.3" style="fill:rgb(45,45,45);"/>
            <circle cx="73.4" cy="68" r="1.3" style="fill:rgb(45,45,45);"/>
            <circle cx="77" cy="68" r="1.3" style="fill:rgb(45,45,45);"/>
            <circle cx="80.6" cy="68" r="1.3" style="fill:rgb(45,45,45);"/>
            <circle cx="84.2" cy="68" r="1.3" style="fill:rgb(45,45,45);"/>
            <circle cx="87.8" cy="68" r="1.3" style="fill:rgb(45,45,45);"/>
            <circle cx="91.4" cy="68" r="1.3" style="fill:rgb(45,45,45);"/>
            <circle cx="1.4" cy="71.6" r="1.3" style="fill:rgb(45,45,45);"/>
            <circle cx="5" cy="71.6" r="1.3" style="fill:rgb(45,45,45);"/>
            <circle cx="8.6" cy="71.6" r="1.3" style="fill:rgb(45,45,45);"/>
            <circle cx="12.2" cy="71.6" r="1.3" style="fill:rgb(45,45,45);"/>
            <circle cx="15.8" cy="71.6" r="1.3" style="fill:rgb(45,45,45);"/>
            <circle cx="19.4" cy="71.6" r="1.3" style="fill:rgb(45,45,45);"/>
            <circle cx="23" cy="71.6" r="1.3" style="fill:rgb(45,45,45);"/>
            <circle cx="26.6" cy="71.6" r="1.3" style="fill:rgb(45,45,45);"/>
            <circle cx="30.2" cy="71.6" r="1.3" style="fill:rgb(45,45,45);"/>
            <circle cx="33.8" cy="71.6" r="1.3" style="fill:rgb(45,45,45);"/>
            <circle cx="37.4" cy="71.6" r="1.3" style="fill:rgb(45,45,45);"/>
            <circle cx="41" cy="71.6" r="1.3" style="fill:rgb(45,45,45);"/>
            <circle cx="44.6" cy="71.6" r="1.3" style="fill:rgb(45,45,45);"/>
            <circle cx="48.2" cy="71.6" r="1.3" style="fill:rgb(45,45,45);"/>
            <circle cx="51.8" cy="71.6" r="1.3" style="fill:rgb(45,45,45);"/>
            <circle cx="55.4" cy="71.6" r="1.3" style="fill:rgb(45,45,45);"/>
            <circle cx="59" cy="71.6" r="1.3" style="fill:rgb(45,45,45);"/>
            <circle cx="62.6" cy="71.6" r="1.3" style="fill:rgb(45,45,45);"/>
            <circle cx="66.2" cy="71.6" r="1.3" style="fill:rgb(45,45,45);"/>
            <circle cx="69.8" cy="71.6" r="1.3" style="fill:rgb(45,45,45);"/>
            <circle cx="73.4" cy="71.6" r="1.3" style="fill:rgb(45,45,45);"/>
            <circle cx="77" cy="71.6" r="1.3" style="fill:rgb(45,45,45);"/>
            <circle cx="80.6" cy="71.6" r="1.3" style="fill:rgb(45,45,45);"/>
            <circle cx="84.2" cy="71.6" r="1.3" style="fill:rgb(45,45,45);"/>
            <circle cx="87.8" cy="71.6" r="1.3" style="fill:rgb(45,45,45);"/>
            <circle cx="91.4" cy="71.6" r="1.3" style="fill:rgb(45,45,45);"/>
            <circle cx="95" cy="71.6" r="1.3" style="fill:rgb(45,45,45);"/>
        </g>
    </g>
</svg>
