<?xml version="1.0" encoding="UTF-8" standalone="no"?>
<!DOCTYPE svg PUBLIC "-//W3C//DTD SVG 1.1//EN" "http://www.w3.org/Graphics/SVG/1.1/DTD/svg11.dtd">
<svg width="100%" height="100%" viewBox="0 0 180 112" version="1.1" xmlns="http://www.w3.org/2000/svg" xmlns:xlink="http://www.w3.org/1999/xlink" xml:space="preserve" style="fill-rule:evenodd;clip-rule:evenodd;stroke-linejoin:round;stroke-miterlimit:1.41421;">
    <g transform="matrix(4.16667,0,0,4.16667,-325.804,-1067.41)">
        <g transform="matrix(1,0,0,1,-136.27,-6.6184)">
            <g>
                <g transform="matrix(1,0,0,0.933458,-0.771902,44.5901)">
                    <rect x="215.235" y="233.76" width="7.23" height="16.424" style="fill:rgb(231,71,61);"/>
                </g>
                <g transform="matrix(-1,0,0,0.933458,472.705,44.5901)">
                    <rect x="215.235" y="233.76" width="7.23" height="16.424" style="fill:rgb(231,71,61);"/>
                </g>
                <g transform="matrix(1.15,0,0,1.15,-36.2366,-9.43412)">
                    <path d="M228,240C233.519,240 238,244.481 238,250C238,255.519 233.519,260 228,260C222.481,260 218,255.519 218,250C218,244.481 222.481,240 228,240ZM228,246.302C230.041,246.302 231.698,247.959 231.698,250C231.698,252.041 230.041,253.698 228,253.698C225.959,253.698 224.302,252.041 224.302,250C224.302,247.959 225.959,246.302 228,246.302Z" style="fill:rgb(231,71,61);"/>
                </g>
                <g transform="matrix(-1.15,0,0,1.15,508.17,-9.43412)">
                    <path d="M228,240C233.519,240 238,244.481 238,250C238,255.519 233.519,260 228,260C222.481,260 218,255.519 218,250C218,244.481 222.481,240 228,240ZM228,246.302C230.041,246.302 231.698,247.959 231.698,250C231.698,252.041 230.041,253.698 228,253.698C225.959,253.698 224.302,252.041 224.302,250C224.302,247.959 225.959,246.302 228,246.302Z" style="fill:rgb(231,71,61);"/>
                </g>
            </g>
        </g>
    </g>
</svg>
