<?xml version="1.0" encoding="UTF-8" standalone="no"?>
<!DOCTYPE svg PUBLIC "-//W3C//DTD SVG 1.1//EN" "http://www.w3.org/Graphics/SVG/1.1/DTD/svg11.dtd">
<svg width="100%" height="100%" viewBox="0 0 1061 519" version="1.1" xmlns="http://www.w3.org/2000/svg" xmlns:xlink="http://www.w3.org/1999/xlink" xml:space="preserve" style="fill-rule:evenodd;clip-rule:evenodd;stroke-linejoin:round;stroke-miterlimit:1.41421;">
    <g transform="matrix(4.16667,0,0,4.16667,-20847,-4631.28)">
        <g transform="matrix(4.65989,0,0,4.65989,4020.63,-115.761)">
            <g transform="matrix(0.757228,0,0,0.757228,154.604,201.24)">
                <path d="M90.203,116.533C91.251,115.485 91.251,113.719 90.203,112.671L80.934,103.787L90.093,94.518C91.141,93.47 91.141,91.704 90.093,90.656C88.989,89.607 87.279,89.607 86.23,90.656C82.147,94.683 75.25,101.746 75.14,101.856C74.588,102.408 74.312,103.125 74.312,103.787C74.312,104.505 74.588,105.222 75.14,105.774C75.25,105.884 82.258,112.505 86.341,116.533C87.389,117.581 89.1,117.581 90.203,116.533Z" style="fill:rgb(231,71,61);fill-rule:nonzero;"/>
            </g>
            <g transform="matrix(0.757228,0,0,0.757228,196.662,201.24)">
                <path d="M75.002,116.533C76.106,117.581 77.816,117.581 78.864,116.533C82.947,112.505 89.955,105.884 90.065,105.774C90.617,105.222 90.893,104.505 90.893,103.787C90.893,103.125 90.617,102.408 90.065,101.856C89.955,101.746 83.058,94.683 78.975,90.656C77.926,89.607 76.216,89.607 75.112,90.656C74.064,91.704 74.064,93.47 75.112,94.518L84.272,103.787L75.002,112.671C73.954,113.719 73.954,115.485 75.002,116.533Z" style="fill:rgb(231,71,61);fill-rule:nonzero;"/>
            </g>
            <g transform="matrix(0.214597,0,0,0.214597,-862.711,24.842)">
                <g>
                    <path d="M5076.46,1111.51L5109.96,1111.51L5109.96,1132.69C5116.16,1130.17 5122.94,1128.79 5130.04,1128.79C5159.62,1128.79 5183.63,1152.8 5183.63,1182.38C5183.63,1211.95 5159.62,1235.97 5130.04,1235.97C5100.47,1235.97 5076.46,1211.95 5076.46,1182.38C5076.46,1182.05 5076.46,1181.71 5076.47,1181.38L5076.46,1181.38L5076.46,1111.51ZM5150.51,1155.39L5137.77,1155.39L5137.77,1163.48C5135.44,1162.55 5132.9,1162.04 5130.25,1162.04C5119.06,1162.04 5109.98,1171.12 5109.98,1182.3C5109.98,1193.48 5119.06,1202.56 5130.25,1202.56C5141.39,1202.56 5150.45,1193.54 5150.51,1182.41L5150.51,1182.41L5150.51,1155.39Z" style="fill:white;"/>
                </g>
            </g>
        </g>
    </g>
</svg>
