<?xml version="1.0" encoding="UTF-8" standalone="no"?>
<!DOCTYPE svg PUBLIC "-//W3C//DTD SVG 1.1//EN" "http://www.w3.org/Graphics/SVG/1.1/DTD/svg11.dtd">
<svg width="100%" height="100%" viewBox="0 0 9619 2925" version="1.1" xmlns="http://www.w3.org/2000/svg" xmlns:xlink="http://www.w3.org/1999/xlink" xml:space="preserve" style="fill-rule:evenodd;clip-rule:evenodd;stroke-linejoin:round;stroke-miterlimit:1.41421;">
    <g transform="matrix(4.16667,0,0,4.16667,-9610.88,-10287.7)">
        <g transform="matrix(0.844037,0,0,0.844037,1642.25,2408.51)">
            <path d="M788.011,331.287L787.834,327.742L787.834,316.752C787.834,301.508 788.13,284.019 788.72,264.285L788.366,263.93L797.938,263.399C828.78,261.744 848.81,260.917 858.027,260.917L940.628,260.917C968.87,260.917 992.327,266.766 1011,278.465C1017.62,284.137 1022.99,291.759 1027.13,301.331C1031.26,310.903 1033.33,321.715 1033.33,333.769C1033.33,357.048 1017.73,376.842 986.537,393.149C1004.14,397.994 1017.64,405.764 1027.04,416.458C1036.43,427.152 1041.13,440.24 1041.13,455.72C1041.13,483.135 1028.84,503.933 1004.26,518.114C986.182,528.749 963.316,534.067 935.665,534.067L882.843,533.358C860.036,533.358 829.785,533.889 792.088,534.953C788.78,527.981 787.125,500.388 787.125,452.175C787.125,403.962 787.421,363.666 788.011,331.287ZM898.264,479.649C928.87,479.649 944.173,468.955 944.173,447.566C944.173,433.977 940.037,424.878 931.765,420.269C924.32,416.251 912.917,414.006 897.555,413.533L892.415,413.533L889.224,423.46C888.397,435.631 887.983,447.596 887.983,459.354C887.983,471.112 889.224,477.877 891.706,479.649L898.264,479.649ZM936.374,361.066C938.737,356.575 939.919,351.14 939.919,344.758C939.919,332.351 935.487,324.02 926.625,319.766C917.762,315.511 908.486,313.384 898.796,313.384C889.106,313.384 884.261,316.929 884.261,324.02C884.261,336.664 884.556,349.603 885.147,362.838L885.502,372.233C885.738,376.723 888.338,379.382 893.301,380.209L901.986,379.146C919.948,377.019 931.411,370.992 936.374,361.066Z" style="fill:rgb(231,71,61);fill-rule:nonzero;"/>
            <path d="M1272.27,461.038C1271.44,464.346 1271.03,467.891 1271.03,471.673L1271.03,475.75C1271.03,482.013 1271.44,486.503 1272.27,489.221C1272.27,507.065 1272.21,520.832 1272.09,530.521C1271.38,533.594 1213.07,535.13 1097.14,535.13C1091.83,535.13 1083.02,535.012 1070.73,534.776C1068.84,531.23 1067.9,525.381 1067.9,517.227L1068.25,505.706L1068.25,465.469L1068.43,431.791L1068.43,398.467L1068.61,344.758C1068.61,334.832 1068.49,325.497 1068.25,316.752L1068.25,314.802L1067.72,289.278C1067.72,274.27 1068.96,264.521 1071.44,260.031C1073.81,260.149 1077.06,260.208 1081.19,260.208L1089.7,260.208L1119.48,259.853C1153.39,259.853 1172.06,261.98 1175.49,266.235L1174.07,328.097L1173.54,380.032L1173.36,382.159L1172.65,455.897L1179.75,459.974C1201.13,458.674 1221.84,458.024 1241.87,458.024C1261.9,458.024 1272.04,459.029 1272.27,461.038Z" style="fill:rgb(231,71,61);fill-rule:nonzero;"/>
            <path d="M1572.19,531.053C1572.07,532.589 1568.82,533.358 1562.44,533.358L1546.13,533.358L1535.14,533.535L1524.33,533.535L1507.13,533.712C1490,533.712 1475.76,533.298 1464.42,532.471C1464.06,532.353 1463.65,531.644 1463.17,530.344L1462.29,526.622C1461.23,514.45 1458.45,502.692 1453.96,491.348L1378.09,492.057C1377.62,494.066 1376.08,500.034 1373.48,509.96C1370.88,519.886 1368.93,527.39 1367.63,532.471C1366.45,533.653 1360.84,534.244 1350.8,534.244L1346.36,534.067L1336.08,534.067L1290,535.13L1284.68,535.13L1279.72,535.307L1267.31,535.307C1266.48,534.48 1265.6,533.417 1264.65,532.117C1276.47,491.23 1292.48,440.535 1312.69,380.032L1316.76,367.447L1316.59,367.447L1321.37,352.735C1322.91,348.008 1327.31,334.891 1334.58,313.384C1341.84,291.877 1346.39,277.992 1348.23,271.729C1350.06,265.466 1351.15,262.217 1351.5,261.98L1380.93,261.98L1443.85,261.094L1460.87,261.98L1474.87,261.094C1481.96,261.094 1485.51,262.512 1485.51,265.348C1497.33,298.318 1513.1,345.763 1532.84,407.684C1552.57,469.605 1563.68,504.406 1566.16,512.087L1568.64,520.95C1569.47,524.14 1570.65,527.508 1572.19,531.053ZM1396.7,434.272L1403.97,434.449L1446.34,434.272C1444.56,420.21 1443.2,409.87 1442.26,403.253L1435.52,372.942C1428.43,341.627 1424.77,325.674 1424.53,325.083C1424.3,324.492 1424.09,323.931 1423.91,323.399C1423.74,322.867 1423.59,322.513 1423.47,322.336C1423.35,322.158 1423.2,321.834 1423.03,321.361C1422.85,320.888 1422.67,320.563 1422.5,320.386C1422.32,320.209 1422.11,319.943 1421.88,319.588C1421.05,318.17 1419.33,316.929 1416.73,315.866C1413.54,316.575 1404.03,352.144 1388.2,422.573L1386.25,434.272L1396.7,434.272Z" style="fill:rgb(231,71,61);fill-rule:nonzero;"/>
            <path d="M1570.59,387.831C1573.43,360.889 1578.15,340.623 1584.77,327.033C1597.42,300.799 1616.26,282.188 1641.32,271.198C1663.65,261.39 1687.93,256.486 1714.17,256.486C1758.13,256.486 1790.21,268.539 1810.42,292.646C1822.59,306.944 1829.62,324.729 1831.51,345.999L1833.11,362.661C1831.1,364.552 1818.39,365.497 1795,365.497L1766.81,365.143L1764.51,365.143L1749.09,364.788L1744.83,364.966L1741.29,364.966C1737.98,364.966 1735.47,360.121 1733.75,350.431C1732.04,340.741 1729.44,334.33 1725.95,331.198C1722.47,328.067 1718.42,326.501 1713.81,326.501C1709.2,326.501 1705.16,327.328 1701.67,328.983C1698.18,330.637 1695.32,332.617 1693.07,334.921C1690.83,337.225 1688.94,340.504 1687.4,344.758C1684.57,352.085 1682.85,359.855 1682.26,368.067C1681.67,376.28 1681.38,385.468 1681.38,395.631L1681.38,399.885L1680.67,417.787C1680.67,450.402 1689.88,467.064 1708.32,467.773C1713.05,467.773 1716.35,466.946 1718.24,465.292C1723.33,460.801 1727.76,451.761 1731.54,438.172C1732.37,435.336 1733.37,433.031 1734.55,431.259L1741.29,431.259L1749.44,431.436L1778.16,431.436L1786.84,431.259L1803.68,431.436L1813.96,431.436L1824.42,431.613L1831.51,431.613C1832.93,431.731 1833.93,432.972 1834.52,435.336L1833.99,441.185C1832.93,455.129 1829.68,467.773 1824.24,479.118C1814.2,499.915 1798.39,515.366 1776.83,525.47C1755.26,535.573 1731.6,540.625 1705.84,540.625C1660.81,540.625 1627.02,527.331 1604.45,500.743C1581.88,474.154 1570.59,436.517 1570.59,387.831Z" style="fill:rgb(231,71,61);fill-rule:nonzero;"/>
            <path d="M1858.1,288.037L1857.57,272.793C1857.57,266.294 1858.22,262.276 1859.52,260.74C1862.71,260.622 1868.76,260.562 1877.68,260.562C1886.61,260.562 1894.32,260.622 1900.82,260.74L1925.81,261.094C1930.42,260.74 1937.1,260.562 1945.84,260.562C1954.58,260.562 1960.14,261.744 1962.5,264.108C1961.91,292.941 1961.62,327.21 1961.62,366.915L1967.82,367.979C1969.59,363.37 1972.81,356.457 1977.48,347.24C1982.15,338.023 1984.84,332.646 1985.55,331.11L1987.49,326.856C1987.97,325.792 1990.12,321.213 1993.96,313.118C1997.81,305.024 2001.73,295.925 2005.75,285.821C2009.77,275.718 2014.08,267.771 2018.69,261.98C2026.96,261.862 2037.04,261.803 2048.91,261.803C2060.79,261.803 2074.64,262.01 2090.48,262.424C2106.31,262.837 2118.19,263.044 2126.11,263.044C2092.43,323.901 2068.5,366.029 2054.32,389.427L2058.4,395.985C2063.24,402.012 2073.82,419.205 2090.12,447.566C2106.43,475.927 2118.25,496.075 2125.58,508.01L2129.83,514.923C2135.03,523.549 2137.63,528.453 2137.63,529.635C2137.63,530.817 2137.28,531.88 2136.57,532.826L2135.5,532.826C2128.89,532.589 2123.54,532.471 2119.46,532.471C2115.38,532.471 2110.04,532.589 2103.42,532.826L2023.83,532.826C2005.63,498.793 1986.73,461.865 1967.11,422.042C1966.16,431.495 1964.75,453.829 1962.86,489.044L1962.86,491.348L1963.21,531.585C1961.79,533.712 1955.59,534.776 1944.6,534.776L1940.88,534.598L1931.31,534.598L1881.14,534.953L1864.83,534.953C1861.53,534.953 1859.16,533.712 1857.74,531.23L1857.21,530.699L1857.21,503.756L1857.57,475.927L1857.57,375.778L1858.1,288.037Z" style="fill:rgb(231,71,61);fill-rule:nonzero;"/>
            <path d="M2140.47,455.897L2234.23,454.302C2236.6,454.302 2238.58,456.311 2240.17,460.329C2241.77,464.346 2243.33,467.537 2244.87,469.9C2248.53,475.572 2254.59,478.409 2263.04,478.409C2271.49,478.409 2278.31,476.429 2283.51,472.471C2288.71,468.512 2291.31,463.401 2291.31,457.138C2291.31,450.875 2289.71,446.591 2286.52,444.287C2283.33,441.983 2279.85,439.737 2276.07,437.551C2272.28,435.365 2266.7,433.681 2259.32,432.5C2251.93,431.318 2247.88,430.609 2247.17,430.373L2247.53,430.373L2237.42,427.714C2230.92,426.532 2225.49,425.232 2221.12,423.814C2192.87,416.251 2172.46,406.739 2159.88,395.276C2147.29,383.814 2141,368.392 2141,349.013C2141,334.95 2143.6,322.306 2148.8,311.08C2154,299.854 2160.79,290.696 2169.18,283.606C2193.41,263.162 2226.85,252.94 2269.51,252.94C2303.42,252.94 2330.07,259.085 2349.45,271.375L2349.27,271.375C2361.68,280.356 2370.19,289.189 2374.8,297.875C2379.41,306.56 2382.3,317.284 2383.48,330.046L2378.87,334.655C2347.79,335.837 2320.26,336.427 2296.27,336.427C2289.06,336.427 2284.75,334.3 2283.33,330.046C2282.74,328.274 2282.09,326.501 2281.38,324.729C2279.73,320.475 2274.41,318.347 2265.43,318.347L2264.72,318.347C2257.75,318.347 2251.78,319.972 2246.82,323.222C2241.86,326.472 2239.34,329.633 2239.28,332.705C2239.23,335.778 2239.88,338.318 2241.24,340.327C2242.59,342.336 2244.04,343.931 2245.58,345.113C2247.11,346.295 2249.48,347.506 2252.67,348.747C2255.86,349.987 2258.25,350.815 2259.85,351.228C2261.44,351.642 2263.95,352.321 2267.38,353.267L2273.58,354.862C2276.07,355.571 2283.3,357.344 2295.3,360.18C2307.29,363.016 2317.31,365.734 2325.34,368.333L2325.34,368.156C2350.51,376.664 2367.68,387.27 2376.84,399.973C2385.99,412.677 2390.57,427.477 2390.57,444.376C2390.57,489.398 2363.69,518.586 2309.92,531.939C2294.32,535.839 2277.66,538.616 2259.93,540.27C2238.19,540.27 2216.68,537.08 2195.41,530.699C2174.14,524.318 2159.9,513.919 2152.7,499.502C2147.85,492.53 2144.6,486.119 2142.95,480.27C2141.29,474.42 2139.93,466.237 2138.87,455.72C2139.22,455.838 2139.76,455.897 2140.47,455.897Z" style="fill:rgb(231,71,61);fill-rule:nonzero;"/>
            <path d="M2411.84,331.287L2411.66,327.742L2411.66,316.752C2411.66,301.508 2411.96,284.019 2412.55,264.285L2412.2,263.93L2421.77,263.399C2452.61,261.744 2472.64,260.917 2481.86,260.917L2564.46,260.917C2592.7,260.917 2616.16,266.766 2634.83,278.465C2641.45,284.137 2646.82,291.759 2650.96,301.331C2655.1,310.903 2657.16,321.715 2657.16,333.769C2657.16,357.048 2641.57,376.842 2610.37,393.149C2627.97,397.994 2641.48,405.764 2650.87,416.458C2660.26,427.152 2664.96,440.24 2664.96,455.72C2664.96,483.135 2652.67,503.933 2628.09,518.114C2610.01,528.749 2587.15,534.067 2559.5,534.067L2506.67,533.358C2483.87,533.358 2453.62,533.889 2415.92,534.953C2412.61,527.981 2410.96,500.388 2410.96,452.175C2410.96,403.962 2411.25,363.666 2411.84,331.287ZM2522.1,479.649C2552.7,479.649 2568,468.955 2568,447.566C2568,433.977 2563.87,424.878 2555.6,420.269C2548.15,416.251 2536.75,414.006 2521.39,413.533L2516.24,413.533L2513.05,423.46C2512.23,435.631 2511.81,447.596 2511.81,459.354C2511.81,471.112 2513.05,477.877 2515.54,479.649L2522.1,479.649ZM2560.2,361.066C2562.57,356.575 2563.75,351.14 2563.75,344.758C2563.75,332.351 2559.32,324.02 2550.46,319.766C2541.59,315.511 2532.32,313.384 2522.63,313.384C2512.94,313.384 2508.09,316.929 2508.09,324.02C2508.09,336.664 2508.39,349.603 2508.98,362.838L2509.33,372.233C2509.57,376.723 2512.17,379.382 2517.13,380.209L2525.82,379.146C2543.78,377.019 2555.24,370.992 2560.2,361.066Z" style="fill:rgb(231,71,61);fill-rule:nonzero;"/>
            <path d="M2945.03,391.731L2944.49,441.54C2944.49,456.783 2942.04,470.255 2937.14,481.954C2932.23,493.652 2925.76,503.106 2917.73,510.314C2895.87,530.167 2863.55,540.093 2820.77,540.093C2777.99,540.093 2744.73,529.694 2720.97,508.896C2712.59,501.688 2705.52,492.323 2699.79,480.801C2694.06,469.28 2690.61,456.252 2689.42,441.717C2690.01,392.322 2690.31,346.649 2690.31,304.699C2689.72,304.699 2689.42,298.495 2689.42,286.087C2689.42,273.679 2689.95,265.998 2691.02,263.044L2694.74,263.044C2712.11,262.099 2735.8,261.626 2765.82,261.626C2767.95,262.099 2771.82,262.394 2777.43,262.512C2783.04,262.63 2786.91,262.808 2789.04,263.044L2794.53,263.753C2795.36,287.151 2795.89,319.352 2796.13,360.357L2795.07,431.613C2795.07,455.247 2801.92,467.064 2815.63,467.064C2821.42,467.064 2826.29,464.524 2830.25,459.442C2834.21,454.361 2836.31,448.63 2836.55,442.249L2837.25,440.476L2837.79,380.741L2837.96,375.424C2837.96,348.008 2837.61,321.538 2836.9,296.013L2836.55,283.074C2836.31,277.874 2836.19,273.207 2836.19,269.071C2836.19,264.935 2836.84,262.099 2838.14,260.562C2883.75,260.562 2918.14,260.74 2941.3,261.094C2942.13,261.921 2943.19,262.69 2944.49,263.399L2944.32,263.399L2946.27,264.639C2945.32,286.973 2944.85,315.689 2944.85,350.785L2944.85,381.273L2945.03,391.731Z" style="fill:rgb(231,71,61);fill-rule:nonzero;"/>
            <path d="M3056.34,262.512L3113.24,261.98C3125.29,261.98 3136.22,262.217 3146.03,262.69C3172.38,263.399 3192.44,269.602 3206.21,281.301C3219.98,293 3226.86,309.485 3226.86,330.755C3226.86,345.527 3222.55,358.141 3213.92,368.599C3205.29,379.057 3192.71,388.245 3176.16,396.162C3202.4,404.434 3218.29,424.523 3223.85,456.429C3225.15,463.401 3226.18,471.377 3226.95,480.358C3227.72,489.339 3228.34,495.366 3228.81,498.438L3230.58,507.478C3232.47,518.114 3234.13,525.795 3235.55,530.521L3234.84,531.053C3214.75,532.353 3196.4,533.003 3179.8,533.003C3163.2,533.003 3148.51,532.708 3135.75,532.117L3134.69,532.117C3131.02,532.117 3127.12,514.687 3122.99,479.827L3122.1,472.205C3121.63,459.206 3119.36,450.461 3115.28,445.971C3111.2,441.48 3104.14,439.235 3094.1,439.235L3091.79,439.413L3082.4,439.413L3082.4,493.298L3082.57,498.97L3082.57,531.408C3082.22,532.589 3081.33,533.298 3079.92,533.535C3066.92,534.007 3048.57,534.244 3024.88,534.244C3001.18,534.244 2985.56,534.303 2977.99,534.421L2976.93,534.067L2976.58,534.244C2976.34,534.244 2975.99,534.067 2975.51,533.712L2975.87,517.759L2975.69,512.441L2976.4,438.881L2976.4,425.941L2976.58,412.647L2976.75,366.738L2976.93,360.711L2976.4,320.475C2976.4,320.475 2976.64,301.626 2977.11,263.93C2977.11,262.985 2980.48,262.512 2987.21,262.512L2998.56,262.69L3009.37,262.69L3031.88,262.867L3056.34,262.512ZM3236.61,529.99L3235.72,530.521L3235.72,530.167C3235.72,530.049 3236.02,529.99 3236.61,529.99ZM3235.72,530.521L3235.72,530.699C3235.6,530.699 3235.55,530.64 3235.55,530.521L3235.72,530.521ZM3121.93,320.297C3114.84,317.225 3105.38,315.689 3093.56,315.689L3083.28,315.689C3081.98,317.579 3081.33,327.535 3081.33,345.556C3081.33,363.577 3081.63,375.66 3082.22,381.805C3119.21,380.978 3137.7,368.215 3137.7,343.518C3137.7,333.001 3132.44,325.26 3121.93,320.297Z" style="fill:rgb(231,71,61);fill-rule:nonzero;"/>
            <path d="M3519.86,518.823C3519.86,518.941 3519.92,519.177 3520.04,519.532L3519.51,520.95L3519.68,520.95L3519.68,521.304C3519.68,521.541 3519.63,521.718 3519.51,521.836C3513.95,526.09 3500.39,529.99 3478.83,533.535C3457.26,537.08 3442.43,538.852 3434.34,538.852C3426.24,538.852 3421.72,538.793 3420.78,538.675L3411.74,539.207C3402.28,539.798 3396.85,540.093 3395.43,540.093C3345.8,540.093 3308.01,527.626 3282.08,502.692C3256.14,477.759 3243.17,442.337 3243.17,396.428C3243.17,350.519 3257.14,315.689 3285.09,291.937C3313.03,268.184 3350.88,256.308 3398.62,256.308C3407.36,256.308 3418.15,257.136 3430.97,258.79C3443.79,260.444 3455.05,262.867 3464.74,266.057C3476.55,270.902 3486.69,277.904 3495.14,287.062C3503.58,296.22 3509.11,306.353 3511.71,317.461C3512.18,320.534 3512.74,325.349 3513.39,331.907C3514.04,338.466 3514.6,343.281 3515.08,346.354C3514.37,348.126 3511.83,349.013 3507.45,349.013L3417.41,347.417C3416.94,347.181 3416.35,345.586 3415.64,342.631L3415.64,343.163C3413.51,333.591 3409.31,327.742 3403.05,325.615C3400.22,324.551 3396.49,324.02 3391.88,324.02C3387.28,324.02 3382.93,324.788 3378.86,326.324C3374.78,327.86 3371.38,329.987 3368.66,332.705C3365.95,335.423 3363.52,338.584 3361.4,342.188C3359.27,345.792 3357.67,349.663 3356.61,353.798C3355.55,357.934 3354.6,362.189 3353.77,366.561C3352.95,370.933 3352.45,375.246 3352.27,379.5C3352.09,383.755 3351.91,387.831 3351.74,391.731C3351.56,395.631 3351.53,398.851 3351.65,401.391C3351.76,403.932 3351.82,405.616 3351.82,406.443L3351.82,418.674C3351.82,426.355 3352.18,431.702 3352.89,434.715C3353.6,437.729 3354.42,441.037 3355.37,444.642C3356.32,448.246 3357.44,450.993 3358.74,452.884C3363.35,459.383 3368.34,463.903 3373.72,466.444C3379.09,468.985 3387.48,470.255 3398.89,470.255C3410.29,470.255 3421.13,468.541 3431.41,465.114L3432.3,437.108L3419.54,436.045L3417.76,436.931L3399.33,436.931L3397.2,437.108L3392.77,432.5C3392.53,430.491 3392.42,427.3 3392.42,422.928L3392.42,383.223C3392.42,381.214 3393.83,379.205 3396.67,377.196L3408.55,377.196C3418.83,377.196 3430.35,377.314 3443.11,377.551L3444.88,377.551C3456.46,377.787 3465.27,377.905 3471.29,377.905L3481.93,377.905L3486.01,377.728C3507.04,377.728 3519.03,379.087 3521.99,381.805L3519.86,516.341L3519.86,518.823Z" style="fill:rgb(231,71,61);fill-rule:nonzero;"/>
            <path d="M947.186,624.112L980.333,623.58C1038.12,623.58 1078.71,633.152 1102.11,652.295C1107.07,655.959 1112.51,662.104 1118.41,670.73C1135.55,695.664 1144.12,723.197 1144.12,753.331C1144.12,807.098 1125.62,846.862 1088.64,872.623C1066.54,888.103 1041.13,895.962 1012.42,896.198L1011.71,896.907L1007.28,896.907L960.126,896.375C938.737,896.375 911.972,896.907 879.829,897.971C877.584,893.716 876.462,888.694 876.462,882.904L876.639,876.523L876.639,848.871L876.993,809.52L876.993,744.645C876.757,729.756 876.639,718.648 876.639,711.321L876.639,682.252L876.816,678.175L876.816,627.48C876.816,626.534 883.256,625.737 896.137,625.087C909.017,624.437 919.298,624.112 926.979,624.112L947.186,624.112ZM1022.34,685.442C1015.61,680.597 1008.16,677.879 1000.01,677.288C997.172,677.17 993.302,677.052 988.398,676.934C983.494,676.816 979.919,676.698 977.674,676.579C975.547,679.77 974.129,682.133 973.42,683.67L970.229,690.228L970.229,700.154C970.229,720.598 970.702,748.308 971.647,783.287L972.711,834.513C973.42,838.177 975.783,840.363 979.801,841.072C991.973,840.835 1001.37,840.008 1007.99,838.59C1031.26,830.318 1042.9,802.017 1042.9,753.685C1042.9,717.88 1036.05,695.132 1022.34,685.442Z" style="fill:rgb(231,71,61);fill-rule:nonzero;"/>
            <path d="M1168.4,672.68L1167.51,626.062C1167.63,626.062 1168.05,626.239 1168.76,626.594C1258.56,625.057 1326.22,624.23 1371.71,624.112C1372.18,624.348 1372.54,624.703 1372.78,625.175L1372.78,675.161C1372.78,680.006 1372.66,683.965 1372.42,687.037C1371.83,688.928 1368.34,689.873 1361.96,689.873L1360.72,689.873C1332.12,689.873 1302.35,689.401 1271.38,688.455C1271.38,689.519 1271.24,691.41 1270.94,694.128C1270.65,696.846 1270.44,698.795 1270.32,699.977L1269.43,706.713C1268.85,711.203 1268.43,719.002 1268.19,730.11L1323.14,728.87C1332.6,728.633 1339.45,728.515 1343.7,728.515L1346.54,728.515C1353.75,728.515 1358.48,728.722 1360.72,729.135C1362.97,729.549 1364.09,730.76 1364.09,732.769L1363.91,734.187L1363.91,738.441L1364.8,783.996L1364.62,784.173L1364.62,783.996C1328.7,785.768 1299.98,786.655 1278.48,786.655L1270.14,786.655L1270.14,829.55L1366.39,826.537C1371.71,826.537 1375.08,827.305 1376.5,828.841C1376.38,831.914 1376.32,836.286 1376.32,841.958L1377.56,890.171C1377.56,893.126 1376.26,894.839 1373.66,895.312L1314.81,894.78C1303.23,894.78 1280.19,895.194 1245.68,896.021L1216.61,896.73C1196.05,897.439 1180.81,897.793 1170.88,897.793L1170.35,897.439L1170.53,897.439C1169.35,896.257 1168.22,895.135 1167.16,894.071L1167.16,887.867L1168.22,698.382L1168.4,672.68Z" style="fill:rgb(231,71,61);fill-rule:nonzero;"/>
            <path d="M1569,896.553L1546.66,896.021L1533.37,896.021C1529.59,896.493 1521.4,896.73 1508.82,896.73C1496.23,896.73 1477.53,897.025 1452.72,897.616C1448.11,893.48 1443.8,881.515 1439.78,861.722C1435.76,841.929 1430.65,821.603 1424.44,800.746C1418.24,779.889 1414.37,766.743 1412.84,761.307L1407.52,742.518C1405.98,737.082 1403.32,727.806 1399.54,714.689C1387.61,674.157 1379.75,644.674 1375.97,626.239C1375.97,625.294 1410.59,624.821 1479.84,624.821C1481.96,624.821 1483.62,625.589 1484.8,627.125C1494.13,682.547 1504.65,742.932 1516.35,808.28L1517.77,817.674L1524.86,817.674L1526.45,808.457C1530.12,785.414 1537.09,748.249 1547.37,696.964L1551.62,676.934C1553.04,670.198 1556.29,653.418 1561.37,626.594C1566.81,625.175 1596.88,624.466 1651.6,624.466L1659.57,624.466C1660.99,625.294 1661.88,626.062 1662.23,626.771L1626.6,755.635C1624,764.97 1622.47,770.938 1622,773.538L1613.66,806.153C1600.31,862.992 1590.74,893.244 1584.95,896.907C1581.76,896.907 1576.74,896.789 1569.88,896.553L1569,896.553Z" style="fill:rgb(231,71,61);fill-rule:nonzero;"/>
            <path d="M1675.53,672.68L1674.64,626.062C1674.76,626.062 1675.17,626.239 1675.88,626.594C1765.69,625.057 1833.34,624.23 1878.84,624.112C1879.31,624.348 1879.66,624.703 1879.9,625.175L1879.9,675.161C1879.9,680.006 1879.78,683.965 1879.55,687.037C1878.95,688.928 1875.47,689.873 1869.09,689.873L1867.85,689.873C1839.25,689.873 1809.47,689.401 1778.51,688.455C1778.51,689.519 1778.36,691.41 1778.07,694.128C1777.77,696.846 1777.57,698.795 1777.45,699.977L1776.56,706.713C1775.97,711.203 1775.56,719.002 1775.32,730.11L1830.27,728.87C1839.72,728.633 1846.58,728.515 1850.83,728.515L1853.67,728.515C1860.88,728.515 1865.6,728.722 1867.85,729.135C1870.09,729.549 1871.22,730.76 1871.22,732.769L1871.04,734.187L1871.04,738.441L1871.92,783.996L1871.75,784.173L1871.75,783.996C1835.82,785.768 1807.11,786.655 1785.6,786.655L1777.27,786.655L1777.27,829.55L1873.52,826.537C1878.84,826.537 1882.2,827.305 1883.62,828.841C1883.51,831.914 1883.45,836.286 1883.45,841.958L1884.69,890.171C1884.69,893.126 1883.39,894.839 1880.79,895.312L1821.94,894.78C1810.36,894.78 1787.32,895.194 1752.81,896.021L1723.74,896.73C1703.18,897.439 1687.93,897.793 1678.01,897.793L1677.48,897.439L1677.65,897.439C1676.47,896.257 1675.35,895.135 1674.29,894.071L1674.29,887.867L1675.35,698.382L1675.53,672.68Z" style="fill:rgb(231,71,61);fill-rule:nonzero;"/>
            <path d="M2111.93,824.055C2111.1,827.364 2110.69,830.909 2110.69,834.691L2110.69,838.767C2110.69,845.03 2111.1,849.521 2111.93,852.239C2111.93,870.083 2111.87,883.849 2111.75,893.539C2111.04,896.612 2052.72,898.148 1936.8,898.148C1931.48,898.148 1922.68,898.03 1910.39,897.793C1908.5,894.248 1907.55,888.399 1907.55,880.245L1907.91,868.724L1907.91,828.487L1908.08,794.808L1908.08,761.484L1908.26,707.776C1908.26,697.85 1908.14,688.515 1907.91,679.77L1907.91,677.82L1907.38,652.295C1907.38,637.288 1908.62,627.539 1911.1,623.048C1913.46,623.167 1916.71,623.226 1920.85,623.226L1929.36,623.226L1959.13,622.871C1993.05,622.871 2011.72,624.998 2015.15,629.252L2013.73,691.114L2013.2,743.05L2013.02,745.177L2012.31,818.915L2019.4,822.992C2040.79,821.692 2061.5,821.042 2081.53,821.042C2101.56,821.042 2111.69,822.046 2111.93,824.055Z" style="fill:rgb(231,71,61);fill-rule:nonzero;"/>
            <path d="M2219.17,757.408C2219.17,757.526 2219.11,757.821 2218.99,758.294L2218.99,758.826C2218.52,763.789 2218.28,769.343 2218.28,775.488C2218.28,781.632 2218.78,788.132 2219.79,794.986C2220.79,801.839 2222.45,808.693 2224.75,815.547C2227.05,822.401 2230.63,827.955 2235.47,832.209C2240.67,836.7 2246.49,838.945 2252.93,838.945C2259.37,838.945 2264.81,838.029 2269.24,836.197C2273.67,834.366 2277.39,832.032 2280.41,829.196C2283.42,826.36 2286.05,822.519 2288.3,817.674C2293.97,804.794 2296.8,784.823 2296.8,757.762C2296.8,730.228 2293.64,710.937 2287.32,699.888C2281,688.84 2271.46,683.315 2258.69,683.315C2252.31,683.315 2246.73,684.851 2241.94,687.924C2237.16,690.996 2233.55,694.187 2231.13,697.495C2228.71,700.804 2226.23,707.835 2223.69,718.589C2221.15,729.342 2219.88,739.268 2219.88,748.368L2219.17,757.408ZM2117.24,758.826L2117.6,754.926C2119.02,740.155 2120.91,727.067 2123.27,715.664C2125.64,704.261 2129.48,693.596 2134.79,683.67C2147.44,661.808 2165.07,645.235 2187.7,633.95C2210.33,622.664 2234.74,617.022 2260.91,617.022C2287.09,617.022 2310.87,622.28 2332.26,632.797C2345.02,639.06 2355,646.978 2362.21,656.55C2376.04,673.802 2385.14,689.696 2389.51,704.231C2393.88,718.766 2396.07,735.546 2396.07,754.571C2396.07,796.876 2387.32,829.137 2369.83,851.353L2361.68,862.165C2350.69,874.927 2335.15,884.765 2315.06,891.678C2294.97,898.591 2275.06,902.166 2255.33,902.402C2221.53,902.402 2193.82,895.312 2172.19,881.131C2135.56,857.379 2117.24,816.611 2117.24,758.826Z" style="fill:rgb(231,71,61);fill-rule:nonzero;"/>
            <path d="M2423.36,774.956L2423.72,702.104L2423.72,628.189C2423.95,628.071 2425.08,628.012 2427.09,628.012L2433.64,628.012C2436.13,628.012 2438.02,627.893 2439.32,627.657L2461.3,626.771C2466.97,626.534 2471.34,626.416 2474.41,626.416L2502.6,626.416L2554.71,625.175C2561.8,625.175 2569.6,625.471 2578.11,626.062L2579.35,626.062C2583.37,625.825 2585.91,625.707 2586.97,625.707C2610.6,625.707 2630.81,633.211 2647.59,648.219C2655.74,655.427 2662.18,664.703 2666.91,676.048C2671.64,687.392 2674,699.12 2674,711.233C2674,723.345 2672.76,733.655 2670.28,742.164C2667.8,750.672 2664.61,757.88 2660.71,763.789C2645.11,787.659 2614.92,801.603 2570.13,805.621L2531.84,807.216C2530.66,835.577 2530.07,857.616 2530.07,873.332L2530.25,878.827L2530.25,893.185C2529.78,894.839 2528.89,895.962 2527.59,896.553L2426.38,898.148C2424.37,892.476 2423.36,883.377 2423.36,870.851L2423.36,774.956ZM2578.46,698.913C2573.74,686.506 2561.21,679.888 2540.88,679.061C2537.93,678.943 2533.85,678.884 2528.65,678.884C2527.24,678.884 2526.35,696.314 2525.99,731.174L2525.64,744.468L2526.17,755.103C2540.71,754.867 2553.5,751.794 2564.55,745.886C2575.6,739.978 2581.12,729.224 2581.12,713.626C2581.12,707.008 2580.23,702.104 2578.46,698.913Z" style="fill:rgb(231,71,61);fill-rule:nonzero;"/>
            <path d="M2693.5,672.68L2692.61,626.062C2692.73,626.062 2693.15,626.239 2693.86,626.594C2783.66,625.057 2851.32,624.23 2896.81,624.112C2897.28,624.348 2897.64,624.703 2897.88,625.175L2897.88,675.161C2897.88,680.006 2897.76,683.965 2897.52,687.037C2896.93,688.928 2893.44,689.873 2887.06,689.873L2885.82,689.873C2857.22,689.873 2827.45,689.401 2796.49,688.455C2796.49,689.519 2796.34,691.41 2796.04,694.128C2795.75,696.846 2795.54,698.795 2795.42,699.977L2794.53,706.713C2793.95,711.203 2793.53,719.002 2793.3,730.11L2848.24,728.87C2857.7,728.633 2864.55,728.515 2868.8,728.515L2871.64,728.515C2878.85,728.515 2883.58,728.722 2885.82,729.135C2888.07,729.549 2889.19,730.76 2889.19,732.769L2889.01,734.187L2889.01,738.441L2889.9,783.996L2889.72,784.173L2889.72,783.996C2853.8,785.768 2825.08,786.655 2803.58,786.655L2795.24,786.655L2795.24,829.55L2891.49,826.537C2896.81,826.537 2900.18,827.305 2901.6,828.841C2901.48,831.914 2901.42,836.286 2901.42,841.958L2902.66,890.171C2902.66,893.126 2901.36,894.839 2898.76,895.312L2839.91,894.78C2828.33,894.78 2805.29,895.194 2770.78,896.021L2741.71,896.73C2721.15,897.439 2705.91,897.793 2695.98,897.793L2695.45,897.439L2695.63,897.439C2694.45,896.257 2693.32,895.135 2692.26,894.071L2692.26,887.867L2693.32,698.382L2693.5,672.68Z" style="fill:rgb(231,71,61);fill-rule:nonzero;"/>
            <path d="M3003.87,625.53L3060.77,624.998C3072.83,624.998 3083.76,625.235 3093.56,625.707C3119.92,626.416 3139.97,632.62 3153.74,644.319C3167.51,656.018 3174.39,672.503 3174.39,693.773C3174.39,708.544 3170.08,721.159 3161.45,731.617C3152.83,742.075 3140.24,751.263 3123.7,759.18C3149.93,767.452 3165.83,787.541 3171.38,819.447C3172.68,826.419 3173.71,834.395 3174.48,843.376C3175.25,852.357 3175.87,858.384 3176.34,861.456L3178.12,870.496C3180.01,881.131 3181.66,888.812 3183.08,893.539L3182.37,894.071C3162.28,895.371 3143.93,896.021 3127.33,896.021C3110.73,896.021 3096.05,895.725 3083.28,895.135L3082.22,895.135C3078.56,895.135 3074.66,877.704 3070.52,842.844L3069.64,835.222C3069.16,822.224 3066.89,813.479 3062.81,808.989C3058.73,804.498 3051.67,802.253 3041.63,802.253L3039.32,802.43L3029.93,802.43L3029.93,856.316L3030.11,861.988L3030.11,894.425C3029.75,895.607 3028.87,896.316 3027.45,896.553C3014.45,897.025 2996.1,897.262 2972.41,897.262C2948.72,897.262 2933.09,897.321 2925.53,897.439L2924.46,897.084L2924.11,897.262C2923.87,897.262 2923.52,897.084 2923.05,896.73L2923.4,880.777L2923.22,875.459L2923.93,801.899L2923.93,788.959L2924.11,775.665L2924.29,729.756L2924.46,723.729L2923.93,683.492C2923.93,683.492 2924.17,664.644 2924.64,626.948C2924.64,626.003 2928.01,625.53 2934.74,625.53L2946.09,625.707L2956.9,625.707L2979.41,625.885L3003.87,625.53ZM3184.14,893.007L3183.26,893.539L3183.26,893.185C3183.26,893.067 3183.55,893.007 3184.14,893.007ZM3183.26,893.539L3183.26,893.716C3183.14,893.716 3183.08,893.657 3183.08,893.539L3183.26,893.539ZM3069.46,683.315C3062.37,680.243 3052.91,678.706 3041.1,678.706L3030.82,678.706C3029.52,680.597 3028.87,690.553 3028.87,708.574C3028.87,726.595 3029.16,738.678 3029.75,744.822C3066.74,743.995 3085.23,731.233 3085.23,706.535C3085.23,696.018 3079.97,688.278 3069.46,683.315Z" style="fill:rgb(231,71,61);fill-rule:nonzero;"/>
            <path d="M3192.47,818.915L3286.24,817.32C3288.6,817.32 3290.58,819.329 3292.18,823.346C3293.77,827.364 3295.34,830.555 3296.88,832.918C3300.54,838.59 3306.6,841.426 3315.04,841.426C3323.49,841.426 3330.32,839.447 3335.52,835.488C3340.72,831.53 3343.32,826.419 3343.32,820.156C3343.32,813.893 3341.72,809.609 3338.53,807.305C3335.34,805 3331.85,802.755 3328.07,800.569C3324.29,798.383 3318.71,796.699 3311.32,795.517C3303.94,794.336 3299.89,793.627 3299.18,793.39L3299.53,793.39L3289.43,790.731C3282.93,789.55 3277.5,788.25 3273.12,786.832C3244.88,779.269 3224.47,769.756 3211.88,758.294C3199.3,746.831 3193,731.41 3193,712.03C3193,697.968 3195.6,685.324 3200.8,674.098C3206,662.872 3212.8,653.714 3221.19,646.623C3245.41,626.18 3278.86,615.958 3321.51,615.958C3355.43,615.958 3382.08,622.103 3401.46,634.393L3401.28,634.393C3413.69,643.374 3422.2,652.207 3426.8,660.892C3431.41,669.578 3434.31,680.302 3435.49,693.064L3430.88,697.673C3399.8,698.854 3372.27,699.445 3348.28,699.445C3341.07,699.445 3336.76,697.318 3335.34,693.064C3334.75,691.292 3334.1,689.519 3333.39,687.746C3331.74,683.492 3326.42,681.365 3317.44,681.365L3316.73,681.365C3309.76,681.365 3303.79,682.99 3298.83,686.24C3293.86,689.489 3291.35,692.65 3291.29,695.723C3291.23,698.795 3291.88,701.336 3293.24,703.345C3294.6,705.354 3296.05,706.949 3297.58,708.131C3299.12,709.312 3301.48,710.524 3304.68,711.764C3307.87,713.005 3310.26,713.832 3311.85,714.246C3313.45,714.66 3315.96,715.339 3319.39,716.284L3325.59,717.88C3328.07,718.589 3335.31,720.361 3347.3,723.197C3359.3,726.033 3369.31,728.751 3377.35,731.351L3377.35,731.174C3402.52,739.682 3419.68,750.288 3428.84,762.991C3438,775.694 3442.58,790.495 3442.58,807.393C3442.58,852.416 3415.7,881.604 3361.93,894.957C3346.33,898.857 3329.67,901.634 3311.94,903.288C3290.2,903.288 3268.69,900.098 3247.42,893.716C3226.15,887.335 3211.91,876.936 3204.7,862.52C3199.86,855.548 3196.61,849.137 3194.95,843.287C3193.3,837.438 3191.94,829.255 3190.88,818.738C3191.23,818.856 3191.76,818.915 3192.47,818.915Z" style="fill:rgb(231,71,61);fill-rule:nonzero;"/>
        </g>
        <g transform="matrix(0.709354,0,0,0.709354,1684.48,2085.61)">
            <path d="M1903.47,542.706L1903.47,560.668L1875.24,560.668L1875.24,636.296L1854.17,636.296L1854.17,560.668L1825.95,560.668L1825.95,542.706L1903.47,542.706Z" style="fill:white;fill-rule:nonzero;"/>
            <path d="M1973.42,542.706L1994.49,542.706L1994.49,636.296L1973.42,636.296L1973.42,596.591L1938.04,596.591L1938.04,636.296L1916.97,636.296L1916.97,542.706L1938.04,542.706L1938.04,578.495L1973.42,578.495L1973.42,542.706Z" style="fill:white;fill-rule:nonzero;"/>
            <path d="M2016.1,636.296L2016.1,542.706L2079.3,542.706L2079.3,560.398L2037.17,560.398L2037.17,578.765L2074.58,578.765L2074.58,596.051L2037.17,596.051L2037.17,618.604L2082.41,618.604L2082.41,636.296L2016.1,636.296Z" style="fill:white;fill-rule:nonzero;"/>
            <path d="M2173.03,638.187C2157.81,638.187 2146.22,633.955 2138.25,625.492C2130.28,617.029 2126.3,605.009 2126.3,589.434C2126.3,581.691 2127.51,574.781 2129.95,568.704C2132.38,562.626 2135.71,557.494 2139.94,553.308C2144.17,549.121 2149.21,545.948 2155.07,543.787C2160.92,541.626 2167.26,540.546 2174.11,540.546C2178.07,540.546 2181.67,540.838 2184.91,541.423C2188.15,542.009 2190.99,542.684 2193.42,543.449C2195.85,544.215 2197.88,545.002 2199.5,545.813C2201.12,546.623 2202.29,547.253 2203.01,547.703L2196.93,564.72C2194.05,563.189 2190.7,561.884 2186.87,560.803C2183.04,559.723 2178.7,559.183 2173.84,559.183C2170.6,559.183 2167.42,559.723 2164.32,560.803C2161.21,561.884 2158.46,563.617 2156.08,566.003C2153.69,568.388 2151.78,571.472 2150.34,575.253C2148.9,579.035 2148.18,583.627 2148.18,589.029C2148.18,593.35 2148.65,597.379 2149.6,601.116C2150.54,604.852 2152.07,608.071 2154.19,610.772C2156.3,613.473 2159.07,615.611 2162.49,617.186C2165.91,618.762 2170.06,619.55 2174.92,619.55C2177.98,619.55 2180.72,619.37 2183.16,619.01C2185.59,618.65 2187.75,618.222 2189.64,617.727C2191.53,617.231 2193.2,616.669 2194.64,616.039C2196.08,615.408 2197.38,614.823 2198.55,614.283L2204.36,631.164C2201.39,632.965 2197.2,634.585 2191.8,636.026C2186.4,637.466 2180.14,638.187 2173.03,638.187Z" style="fill:white;fill-rule:nonzero;"/>
            <path d="M2232.18,589.434C2232.18,594.025 2232.74,598.167 2233.87,601.858C2234.99,605.55 2236.61,608.723 2238.73,611.379C2240.85,614.035 2243.43,616.084 2246.49,617.524C2249.56,618.965 2253.07,619.685 2257.03,619.685C2260.9,619.685 2264.39,618.965 2267.49,617.524C2270.6,616.084 2273.21,614.035 2275.33,611.379C2277.44,608.723 2279.06,605.55 2280.19,601.858C2281.32,598.167 2281.88,594.025 2281.88,589.434C2281.88,584.842 2281.32,580.678 2280.19,576.942C2279.06,573.205 2277.44,570.009 2275.33,567.353C2273.21,564.697 2270.6,562.649 2267.49,561.208C2264.39,559.768 2260.9,559.047 2257.03,559.047C2253.07,559.047 2249.56,559.79 2246.49,561.276C2243.43,562.761 2240.85,564.832 2238.73,567.488C2236.61,570.144 2234.99,573.34 2233.87,577.077C2232.74,580.813 2232.18,584.932 2232.18,589.434ZM2303.62,589.434C2303.62,597.447 2302.43,604.492 2300.04,610.569C2297.66,616.646 2294.39,621.733 2290.25,625.83C2286.11,629.926 2281.18,633.01 2275.46,635.081C2269.74,637.151 2263.6,638.187 2257.03,638.187C2250.64,638.187 2244.6,637.151 2238.93,635.081C2233.26,633.01 2228.31,629.926 2224.08,625.83C2219.85,621.733 2216.51,616.646 2214.08,610.569C2211.65,604.492 2210.44,597.447 2210.44,589.434C2210.44,581.421 2211.7,574.376 2214.22,568.298C2216.74,562.221 2220.14,557.112 2224.41,552.97C2228.69,548.829 2233.64,545.723 2239.27,543.652C2244.9,541.581 2250.82,540.546 2257.03,540.546C2263.42,540.546 2269.45,541.581 2275.12,543.652C2280.8,545.723 2285.75,548.829 2289.98,552.97C2294.21,557.112 2297.54,562.221 2299.97,568.298C2302.41,574.376 2303.62,581.421 2303.62,589.434Z" style="fill:white;fill-rule:nonzero;"/>
            <path d="M2346.03,542.706C2347.65,545.678 2349.51,549.346 2351.63,553.713C2353.75,558.08 2355.95,562.806 2358.25,567.893C2360.54,572.98 2362.82,578.18 2365.07,583.492C2367.32,588.803 2369.43,593.8 2371.42,598.482C2373.4,593.8 2375.51,588.803 2377.76,583.492C2380.01,578.18 2382.29,572.98 2384.58,567.893C2386.88,562.806 2389.09,558.08 2391.2,553.713C2393.32,549.346 2395.18,545.678 2396.8,542.706L2415.98,542.706C2416.88,548.919 2417.72,555.874 2418.48,563.572C2419.25,571.27 2419.92,579.282 2420.51,587.611C2421.09,595.939 2421.63,604.289 2422.13,612.662C2422.62,621.035 2423.05,628.913 2423.41,636.296L2402.88,636.296C2402.61,627.203 2402.25,617.299 2401.8,606.585C2401.35,595.871 2400.68,585.067 2399.78,574.173C2398.16,577.954 2396.36,582.141 2394.37,586.733C2392.39,591.324 2390.43,595.916 2388.5,600.508C2386.56,605.1 2384.7,609.489 2382.89,613.675C2381.09,617.862 2379.56,621.441 2378.3,624.412L2363.58,624.412C2362.32,621.441 2360.79,617.862 2358.99,613.675C2357.19,609.489 2355.32,605.1 2353.39,600.508C2351.45,595.916 2349.49,591.324 2347.51,586.733C2345.53,582.141 2343.73,577.954 2342.11,574.173C2341.21,585.067 2340.53,595.871 2340.08,606.585C2339.63,617.299 2339.27,627.203 2339,636.296L2318.48,636.296C2318.84,628.913 2319.26,621.035 2319.76,612.662C2320.25,604.289 2320.79,595.939 2321.38,587.611C2321.97,579.282 2322.64,571.27 2323.41,563.572C2324.17,555.874 2325,548.919 2325.9,542.706L2346.03,542.706Z" style="fill:white;fill-rule:nonzero;"/>
            <path d="M2467.17,542.706C2468.79,545.678 2470.66,549.346 2472.77,553.713C2474.89,558.08 2477.09,562.806 2479.39,567.893C2481.68,572.98 2483.96,578.18 2486.21,583.492C2488.46,588.803 2490.58,593.8 2492.55,598.482C2494.54,593.8 2496.65,588.803 2498.9,583.492C2501.15,578.18 2503.43,572.98 2505.72,567.893C2508.02,562.806 2510.22,558.08 2512.34,553.713C2514.46,549.346 2516.32,545.678 2517.95,542.706L2537.12,542.706C2538.02,548.919 2538.86,555.874 2539.62,563.572C2540.39,571.27 2541.06,579.282 2541.65,587.611C2542.23,595.939 2542.77,604.289 2543.27,612.662C2543.76,621.035 2544.19,628.913 2544.55,636.296L2524.02,636.296C2523.75,627.203 2523.39,617.299 2522.94,606.585C2522.49,595.871 2521.82,585.067 2520.92,574.173C2519.3,577.954 2517.49,582.141 2515.51,586.733C2513.53,591.324 2511.58,595.916 2509.64,600.508C2507.7,605.1 2505.84,609.489 2504.03,613.675C2502.23,617.862 2500.7,621.441 2499.44,624.412L2484.72,624.412C2483.46,621.441 2481.93,617.862 2480.13,613.675C2478.33,609.489 2476.46,605.1 2474.53,600.508C2472.59,595.916 2470.63,591.324 2468.65,586.733C2466.67,582.141 2464.87,577.954 2463.25,574.173C2462.35,585.067 2461.67,595.871 2461.22,606.585C2460.77,617.299 2460.41,627.203 2460.14,636.296L2439.62,636.296C2439.98,628.913 2440.4,621.035 2440.9,612.662C2441.39,604.289 2441.93,595.939 2442.52,587.611C2443.1,579.282 2443.78,571.27 2444.55,563.572C2445.31,555.874 2446.14,548.919 2447.04,542.706L2467.17,542.706Z" style="fill:white;fill-rule:nonzero;"/>
            <path d="M2600.05,638.187C2593.48,638.187 2587.81,637.264 2583.04,635.418C2578.27,633.573 2574.33,631.007 2571.22,627.72C2568.12,624.434 2565.82,620.518 2564.33,615.971C2562.85,611.424 2562.11,606.405 2562.11,600.913L2562.11,542.706L2583.17,542.706L2583.17,599.157C2583.17,602.939 2583.6,606.157 2584.46,608.813C2585.31,611.469 2586.48,613.63 2587.97,615.296C2589.45,616.961 2591.25,618.154 2593.37,618.875C2595.49,619.595 2597.8,619.955 2600.33,619.955C2605.46,619.955 2609.62,618.379 2612.82,615.228C2616.01,612.077 2617.61,606.72 2617.61,599.157L2617.61,542.706L2638.68,542.706L2638.68,600.913C2638.68,606.405 2637.91,611.447 2636.38,616.039C2634.85,620.63 2632.51,624.569 2629.36,627.855C2626.21,631.142 2622.2,633.685 2617.34,635.486C2612.48,637.286 2606.72,638.187 2600.05,638.187Z" style="fill:white;fill-rule:nonzero;"/>
            <path d="M2721.74,636.296C2715.7,625.582 2709.18,615.003 2702.15,604.559C2695.13,594.115 2687.66,584.257 2679.73,574.983L2679.73,636.296L2658.94,636.296L2658.94,542.706L2676.09,542.706C2679.06,545.678 2682.35,549.324 2685.95,553.646C2689.55,557.967 2693.22,562.581 2696.95,567.488C2700.69,572.395 2704.4,577.482 2708.1,582.749C2711.79,588.016 2715.25,593.08 2718.49,597.942L2718.49,542.706L2739.43,542.706L2739.43,636.296L2721.74,636.296Z" style="fill:white;fill-rule:nonzero;"/>
            <rect x="2761.03" y="542.706" width="21.068" height="93.59" style="fill:white;fill-rule:nonzero;"/>
            <path d="M2873.13,542.706L2873.13,560.668L2844.9,560.668L2844.9,636.296L2823.83,636.296L2823.83,560.668L2795.61,560.668L2795.61,542.706L2873.13,542.706Z" style="fill:white;fill-rule:nonzero;"/>
            <path d="M2925.53,581.196C2929.31,574.803 2932.91,568.411 2936.33,562.019C2939.75,555.626 2942.9,549.189 2945.78,542.706L2969.01,542.706C2963.88,552.79 2958.57,562.559 2953.08,572.012C2947.58,581.466 2941.78,590.964 2935.65,600.508L2935.65,636.296L2914.59,636.296L2914.59,600.778C2908.46,591.234 2902.63,581.691 2897.1,572.147C2891.56,562.604 2886.23,552.79 2881.09,542.706L2905.54,542.706C2908.42,549.189 2911.53,555.626 2914.86,562.019C2918.19,568.411 2921.74,574.803 2925.53,581.196Z" style="fill:white;fill-rule:nonzero;"/>
            <path d="M3030.59,589.434C3030.59,594.025 3031.16,598.167 3032.28,601.858C3033.41,605.55 3035.03,608.723 3037.14,611.379C3039.26,614.035 3041.85,616.084 3044.91,617.524C3047.97,618.965 3051.48,619.685 3055.44,619.685C3059.32,619.685 3062.8,618.965 3065.91,617.524C3069.02,616.084 3071.63,614.035 3073.74,611.379C3075.86,608.723 3077.48,605.55 3078.6,601.858C3079.73,598.167 3080.29,594.025 3080.29,589.434C3080.29,584.842 3079.73,580.678 3078.6,576.942C3077.48,573.205 3075.86,570.009 3073.74,567.353C3071.63,564.697 3069.02,562.649 3065.91,561.208C3062.8,559.768 3059.32,559.047 3055.44,559.047C3051.48,559.047 3047.97,559.79 3044.91,561.276C3041.85,562.761 3039.26,564.832 3037.14,567.488C3035.03,570.144 3033.41,573.34 3032.28,577.077C3031.16,580.813 3030.59,584.932 3030.59,589.434ZM3102.03,589.434C3102.03,597.447 3100.84,604.492 3098.46,610.569C3096.07,616.646 3092.81,621.733 3088.66,625.83C3084.52,629.926 3079.6,633.01 3073.88,635.081C3068.16,637.151 3062.02,638.187 3055.44,638.187C3049.05,638.187 3043.02,637.151 3037.35,635.081C3031.67,633.01 3026.72,629.926 3022.49,625.83C3018.26,621.733 3014.93,616.646 3012.5,610.569C3010.07,604.492 3008.85,597.447 3008.85,589.434C3008.85,581.421 3010.11,574.376 3012.63,568.298C3015.15,562.221 3018.55,557.112 3022.83,552.97C3027.11,548.829 3032.06,545.723 3037.68,543.652C3043.31,541.581 3049.23,540.546 3055.44,540.546C3061.84,540.546 3067.87,541.581 3073.54,543.652C3079.21,545.723 3084.16,548.829 3088.39,552.97C3092.63,557.112 3095.96,562.221 3098.39,568.298C3100.82,574.376 3102.03,581.421 3102.03,589.434Z" style="fill:white;fill-rule:nonzero;"/>
            <path d="M3119.59,636.296L3119.59,542.706L3182.26,542.706L3182.26,560.398L3140.66,560.398L3140.66,579.98L3177.66,579.98L3177.66,597.672L3140.66,597.672L3140.66,636.296L3119.59,636.296Z" style="fill:white;fill-rule:nonzero;"/>
        </g>
    </g>
</svg>
