<?xml version="1.0" encoding="UTF-8" standalone="no"?>
<!DOCTYPE svg PUBLIC "-//W3C//DTD SVG 1.1//EN" "http://www.w3.org/Graphics/SVG/1.1/DTD/svg11.dtd">
<svg width="100%" height="100%" viewBox="0 0 1638 802" version="1.1" xmlns="http://www.w3.org/2000/svg" xmlns:xlink="http://www.w3.org/1999/xlink" xml:space="preserve" style="fill-rule:evenodd;clip-rule:evenodd;stroke-linejoin:round;stroke-miterlimit:1.41421;">
    <g transform="matrix(4.16667,0,0,4.16667,-955.457,-457.018)">
        <g transform="matrix(7.20028,0,0,7.20028,-1289.16,-1786.64)">
            <g transform="matrix(0.757228,0,0,0.757228,154.619,200.255)">
                <path d="M90.203,116.533C91.251,115.485 91.251,113.719 90.203,112.671L80.934,103.787L90.093,94.518C91.141,93.47 91.141,91.704 90.093,90.656C88.989,89.607 87.279,89.607 86.23,90.656C82.147,94.683 75.25,101.746 75.14,101.856C74.588,102.408 74.312,103.125 74.312,103.787C74.312,104.505 74.588,105.222 75.14,105.774C75.25,105.884 82.258,112.505 86.341,116.533C87.389,117.581 89.1,117.581 90.203,116.533Z" style="fill:white;fill-rule:nonzero;"/>
            </g>
            <g transform="matrix(0.757228,0,0,0.757228,196.662,200.255)">
                <path d="M75.002,116.533C76.106,117.581 77.816,117.581 78.864,116.533C82.947,112.505 89.955,105.884 90.065,105.774C90.617,105.222 90.893,104.505 90.893,103.787C90.893,103.125 90.617,102.408 90.065,101.856C89.955,101.746 83.058,94.683 78.975,90.656C77.926,89.607 76.216,89.607 75.112,90.656C74.064,91.704 74.064,93.47 75.112,94.518L84.272,103.787L75.002,112.671C73.954,113.719 73.954,115.485 75.002,116.533Z" style="fill:white;fill-rule:nonzero;"/>
            </g>
            <g transform="matrix(1,0,0,1,0.217357,0)">
                <g transform="matrix(1,0,0,0.933458,11.1323,45.1625)">
                    <rect x="215.235" y="233.76" width="7.23" height="16.424" style="fill:rgb(231,71,61);"/>
                </g>
                <g transform="matrix(0.138883,0,0,0.138883,190.947,248.646)">
                    <path d="M337.839,132.709C383.539,132.709 420.642,169.812 420.642,215.512C420.642,261.213 383.539,298.315 337.839,298.315C292.138,298.315 255.035,261.213 255.035,215.512C255.035,169.812 292.138,132.709 337.839,132.709ZM369.46,215.391L369.46,173.815L349.774,173.815L349.774,186.312C346.179,184.872 342.256,184.08 338.149,184.08C320.868,184.08 306.839,198.11 306.839,215.391C306.839,232.672 320.868,246.702 338.149,246.702C355.375,246.702 369.371,232.761 369.46,215.557L369.46,215.557L369.46,215.391C369.46,215.391 369.46,215.391 369.46,215.391Z" style="fill:rgb(231,71,61);"/>
                </g>
            </g>
        </g>
    </g>
</svg>
