<?xml version="1.0" encoding="UTF-8" standalone="no"?>
<!DOCTYPE svg PUBLIC "-//W3C//DTD SVG 1.1//EN" "http://www.w3.org/Graphics/SVG/1.1/DTD/svg11.dtd">
<svg width="100%" height="100%" viewBox="0 0 373 375" version="1.1" xmlns="http://www.w3.org/2000/svg" xmlns:xlink="http://www.w3.org/1999/xlink" xml:space="preserve" style="fill-rule:evenodd;clip-rule:evenodd;stroke-linejoin:round;stroke-miterlimit:1.41421;">
    <g transform="matrix(4.16667,0,0,4.16667,-9404.49,-5719.74)">
        <g transform="matrix(1,0,0,1,2251.77,1367.72)">
            <path d="M94.625,86.578L86.197,61.955L85.748,55.215C85.738,55.063 85.699,54.912 85.631,54.774L84.067,51.569L81.303,9.968C81.278,9.583 81.067,9.235 80.739,9.033L74.503,5.197C74.314,5.082 74.099,5.021 73.878,5.021L26.121,5.021C25.901,5.021 25.684,5.082 25.498,5.197L19.26,9.033C18.932,9.234 18.721,9.583 18.696,9.968L15.933,51.569L14.369,54.774C14.302,54.911 14.262,55.063 14.251,55.215L13.804,61.955L5.374,86.578C5.29,86.824 5.288,87.09 5.37,87.338L7.627,94.164C7.788,94.652 8.243,94.98 8.757,94.98L91.243,94.98C91.757,94.98 92.214,94.652 92.374,94.164L94.632,87.338C94.711,87.09 94.711,86.824 94.625,86.578ZM16.599,55.771L83.399,55.771L83.78,61.478L16.219,61.478L16.599,55.771ZM15.993,62.906L84.006,62.906L91.998,86.25L8.001,86.25L15.993,62.906ZM21.027,10.761L78.97,10.761L81.654,51.164L18.344,51.164L21.027,10.761ZM90.383,92.602L9.616,92.602L7.989,87.678L92.01,87.678L90.383,92.602Z" style="fill:white;fill-rule:nonzero;"/>
            <path d="M88.398,82.566L86.535,77.123L84.646,71.609L82.753,66.078C82.653,65.789 82.382,65.596 82.075,65.596L76.262,65.596L76.219,65.596L70.41,65.596C70.193,65.596 69.99,65.694 69.853,65.862C69.718,66.03 69.665,66.251 69.712,66.462L70.909,71.956L70.915,71.981L72.112,77.471C72.112,77.479 72.114,77.485 72.116,77.492L73.318,83C73.39,83.328 73.679,83.563 74.015,83.563L87.741,83.563C88.134,83.563 88.454,83.243 88.454,82.848C88.455,82.748 88.434,82.652 88.398,82.566ZM72.5,72.535L77.248,72.535L78.393,76.621L73.391,76.621L72.5,72.535ZM78.73,72.535L83.453,72.535L84.851,76.621L79.874,76.621L78.73,72.535ZM81.566,67.023L82.964,71.107L78.33,71.107L77.187,67.023L81.566,67.023ZM75.703,67.023L76.848,71.107L72.19,71.107L71.299,67.023L75.703,67.023ZM74.592,82.133L73.701,78.049L78.791,78.049L79.936,82.133L74.592,82.133ZM81.42,82.133L80.275,78.049L85.341,78.049L86.739,82.133L81.42,82.133Z" style="fill:white;fill-rule:nonzero;"/>
            <path d="M79.063,47.678L76.834,14.125C76.813,13.825 76.564,13.592 76.264,13.592L23.735,13.592C23.434,13.592 23.184,13.825 23.165,14.125L20.934,47.724C20.923,47.882 20.979,48.037 21.087,48.152C21.194,48.267 21.346,48.334 21.504,48.334L78.498,48.334C78.812,48.334 79.068,48.078 79.068,47.762C79.068,47.733 79.066,47.705 79.063,47.678ZM22.114,47.19L24.27,14.734L75.728,14.734L77.884,47.19L22.114,47.19Z" style="fill:white;fill-rule:nonzero;"/>
            <path d="M64.381,17.489C59.617,17.147 54.777,16.975 50,16.975C45.223,16.975 40.383,17.147 35.617,17.489C33.443,17.653 31.393,19.629 31.138,21.805C30.45,27.966 30.45,33.957 31.138,40.12C31.392,42.296 33.441,44.271 35.617,44.434C40.382,44.777 45.22,44.95 50,44.95C54.778,44.95 59.618,44.777 64.383,44.435C66.557,44.272 68.608,42.296 68.862,40.119C69.55,33.958 69.55,27.967 68.862,21.804C68.607,19.629 66.557,17.653 64.381,17.489Z" style="fill:white;fill-rule:nonzero;"/>
            <path d="M60.488,77.27C60.488,77.266 60.488,77.26 60.488,77.256L59.972,71.748L59.458,66.242C59.425,65.875 59.116,65.596 58.747,65.596L52.92,65.596C52.91,65.596 52.902,65.596 52.893,65.596L47.105,65.596C47.097,65.596 47.089,65.596 47.08,65.596L41.252,65.596L35.447,65.596L35.398,65.596L29.623,65.596L29.565,65.596L23.778,65.596L23.735,65.596L17.921,65.596C17.616,65.596 17.345,65.789 17.246,66.078L15.352,71.609L13.464,77.123L11.583,82.617C11.509,82.834 11.544,83.074 11.678,83.262C11.812,83.451 12.028,83.563 12.259,83.563L60.291,83.563C60.492,83.563 60.684,83.477 60.818,83.329C60.952,83.181 61.019,82.983 61.002,82.782L60.488,77.27ZM22.751,72.535L27.498,72.535L26.608,76.621L21.606,76.621L22.751,72.535ZM28.961,72.535L33.726,72.535L33.091,76.621L28.07,76.621L28.961,72.535ZM35.171,72.535L39.952,72.535L39.569,76.621L34.536,76.621L35.171,72.535ZM41.386,72.535L46.175,72.535L46.048,76.621L41.005,76.621L41.386,72.535ZM47.603,72.535L52.396,72.535L52.523,76.621L47.476,76.621L47.603,72.535ZM47.775,67.023L52.225,67.023L52.352,71.107L47.648,71.107L47.775,67.023ZM53.824,72.535L58.613,72.535L58.994,76.621L53.951,76.621L53.824,72.535ZM58.098,67.023L58.481,71.107L53.78,71.107L53.653,67.023L58.098,67.023ZM46.22,71.107L41.519,71.107L41.9,67.023L46.345,67.023L46.22,71.107ZM40.085,71.107L35.394,71.107L36.029,67.023L40.467,67.023L40.085,71.107ZM33.949,71.107L29.272,71.107L30.162,67.023L34.584,67.023L33.949,71.107ZM27.81,71.107L23.152,71.107L24.296,67.023L28.7,67.023L27.81,71.107ZM18.432,67.023L22.813,67.023L21.668,71.107L17.033,71.107L18.432,67.023ZM16.545,72.535L21.269,72.535L20.124,76.621L15.146,76.621L16.545,72.535ZM14.657,78.049L19.724,78.049L18.579,82.133L13.258,82.133L14.657,78.049ZM21.207,78.049L26.297,78.049L25.408,82.133L20.062,82.133L21.207,78.049ZM27.759,78.049L32.869,78.049L32.234,82.133L26.87,82.133L27.759,78.049ZM34.314,78.049L39.437,78.049L39.056,82.133L33.679,82.133L34.314,78.049ZM40.871,78.049L46.004,78.049L45.877,82.133L40.49,82.133L40.871,78.049ZM47.304,82.133L47.433,78.049L52.566,78.049L52.695,82.133L47.304,82.133ZM54.123,82.133L53.996,78.049L59.127,78.049L59.51,82.133L54.123,82.133Z" style="fill:white;fill-rule:nonzero;"/>
        </g>
    </g>
</svg>
