<svg width="100%" height="100%" viewBox="0 0 310 310" version="1.1" xmlns="http://www.w3.org/2000/svg" xmlns:xlink="http://www.w3.org/1999/xlink" xml:space="preserve" style="fill-rule:evenodd;clip-rule:evenodd;stroke-linejoin:round;stroke-miterlimit:1.41421;">
	<path d="M155.006,157.943c43.508,0 79.309,-35.649 79.309,-78.972c0,-43.322 -35.801,-78.971 -79.309,-78.971c-43.507,0 -79.308,35.649 -79.308,78.971c0.049,43.304 35.82,78.922 79.308,78.972Zm0,-145.228c36.5,0 66.534,29.906 66.534,66.25c0,36.344 -30.034,66.251 -66.534,66.251c-36.497,0 -66.53,-29.903 -66.533,-66.245c0.036,-36.331 30.047,-66.216 66.533,-66.256l0,0Z" style="fill-rule:nonzero;"/><path d="M12.782,310c0,-78.105 63.785,-141.619 142.224,-141.619c78.44,0 142.225,63.514 142.225,141.619l12.769,0c-0.01,-84.665 -69.979,-154.327 -155.006,-154.327c-41.086,0 -80.533,16.266 -109.59,45.191c-29.153,28.87 -45.514,68.196 -45.403,109.136l12.781,0Z" style="fill-rule:nonzero;"/>
</svg>
