<?xml version="1.0" encoding="UTF-8" standalone="no"?>
<!DOCTYPE svg PUBLIC "-//W3C//DTD SVG 1.1//EN" "http://www.w3.org/Graphics/SVG/1.1/DTD/svg11.dtd">
<svg width="100%" height="100%" viewBox="0 0 1293 1505" version="1.1" xmlns="http://www.w3.org/2000/svg" xmlns:xlink="http://www.w3.org/1999/xlink" xml:space="preserve" style="fill-rule:evenodd;clip-rule:evenodd;stroke-linejoin:round;stroke-miterlimit:1.41421;">
    <g transform="matrix(4.16667,0,0,4.16667,-1203.17,-7667.25)">
        <g transform="matrix(13.4842,0,0,13.4842,-2603.11,-1703.45)">
            <g>
                <g transform="matrix(0.0741608,0,0,0.0741608,193.049,88.631)">
                    <path d="M288.76,2348.48L386.256,2348.48L386.256,2524.78C379.889,2533.62 375.505,2543.98 373.76,2555.2L288.76,2555.2L288.76,2348.48Z" style="fill:white;"/>
                </g>
                <g transform="matrix(0.0741608,0,0,0.0741608,193.049,88.631)">
                    <path d="M443.828,2399.31C529.413,2399.31 598.897,2468.8 598.897,2554.38C598.897,2639.97 529.413,2709.45 443.828,2709.45C358.244,2709.45 288.76,2639.97 288.76,2554.38C288.76,2468.8 358.244,2399.31 443.828,2399.31ZM514.742,2566.38L514.742,2471.84L470.157,2471.84L470.157,2500.15C462.015,2496.89 453.129,2495.09 443.828,2495.09C404.69,2495.09 372.915,2526.87 372.915,2566.01C372.915,2605.14 404.69,2636.92 443.828,2636.92C482.841,2636.92 514.539,2605.35 514.741,2566.38L514.742,2566.38ZM443.828,2539.78C429.354,2539.78 417.602,2551.53 417.602,2566.01C417.602,2580.48 429.354,2592.23 443.828,2592.23C458.303,2592.23 470.054,2580.48 470.054,2566.01C470.054,2551.53 458.303,2539.78 443.828,2539.78Z" style="fill:white;"/>
                </g>
            </g>
        </g>
    </g>
</svg>
