<?xml version="1.0" encoding="UTF-8" standalone="no"?><!DOCTYPE svg PUBLIC "-//W3C//DTD SVG 1.1//EN" "http://www.w3.org/Graphics/SVG/1.1/DTD/svg11.dtd"><svg width="100%" height="100%" viewBox="0 0 619 466" version="1.1" xmlns="http://www.w3.org/2000/svg" xmlns:xlink="http://www.w3.org/1999/xlink" xml:space="preserve" style="fill-rule:evenodd;clip-rule:evenodd;stroke-linejoin:round;stroke-miterlimit:1.41421;"><path d="M585.268,0l-551.77,0c-18.329,0 -33.498,15.169 -33.498,33.498l0,398.817c0,18.329 15.169,33.498 33.498,33.498l551.77,0c18.33,0 33.499,-15.169 33.499,-33.498l0,-398.817c0,-18.329 -15.169,-33.498 -33.499,-33.498Zm-387.44,34.762l223.11,0c5.057,0 8.849,3.792 8.849,8.849c0,5.056 -3.792,8.848 -8.849,8.848l-223.11,0c-5.056,0 -8.848,-3.792 -8.848,-8.848c0,-5.057 3.792,-8.849 8.848,-8.849Zm-96.702,0c5.057,0 8.849,3.792 8.849,8.849c0,5.056 -3.792,8.848 -8.849,8.848c-5.056,0 -8.848,-3.792 -8.848,-8.848c0,-5.057 3.792,-8.849 8.848,-8.849Zm-29.706,0c5.057,0 8.849,3.792 8.849,8.849c0,5.056 -3.792,8.848 -8.849,8.848c-5.056,0 -8.848,-3.792 -8.848,-8.848c0,-5.057 4.424,-8.849 8.848,-8.849Zm-29.073,0c5.056,0 8.848,3.792 8.848,8.849c0,5.056 -3.792,8.848 -8.848,8.848c-5.057,0 -8.849,-3.792 -8.849,-8.848c0,-5.057 3.792,-8.849 8.849,-8.849Zm558.722,398.185c0,8.849 -6.952,15.801 -15.801,15.801l-551.77,0c-8.848,0 -15.801,-6.952 -15.801,-15.801l0,-345.726l584.005,0l0,345.726l-0.633,0Z" style="fill:#1a1a1a;fill-rule:nonzero;"/><path d="M147.265,264.825c37.291,0 66.996,-30.338 66.996,-66.997c0,-37.29 -30.338,-66.996 -66.996,-66.996c-37.29,0 -66.996,30.338 -66.996,66.996c-0.632,37.291 29.706,66.997 66.996,66.997Zm0,-111.239c10.113,0 18.329,8.216 18.329,18.329c0,6.952 -3.792,13.273 -9.48,16.433c-2.528,1.264 -5.689,1.896 -8.217,1.896c-3.16,0 -5.688,-0.632 -8.216,-1.896c-5.689,-3.16 -9.481,-8.849 -9.481,-16.433c-1.264,-10.113 6.953,-18.329 17.065,-18.329Zm-31.602,56.251c0.632,-9.481 7.585,-17.697 16.433,-20.857c4.425,3.792 9.481,5.688 15.801,5.688c6.321,0 11.377,-2.528 15.801,-5.688c8.849,3.16 15.169,10.744 16.433,20.857l1.264,14.537c0.632,3.792 -1.896,6.952 -5.688,7.584l-18.961,3.793c-5.689,1.264 -11.377,1.264 -16.433,0l-18.961,-3.793c-3.161,-0.632 -5.689,-3.792 -5.689,-7.584l0,-14.537Z" style="fill:#1a1a1a;fill-rule:nonzero;"/><rect x="79.637" y="295.162" width="458.229" height="28.442" style="fill:#1a1a1a;"/><rect x="79.637" y="358.998" width="458.229" height="28.442" style="fill:#1a1a1a;"/><rect x="250.92" y="166.858" width="286.946" height="28.442" style="fill:#1a1a1a;"/><rect x="250.92" y="230.694" width="286.946" height="28.442" style="fill:#1a1a1a;"/></svg>